<?xml version="1.0" encoding="UTF-8" standalone="no"?>
<!-- Created with Inkscape (http://www.inkscape.org/) -->

<svg
   width="11.0in"
   height="9.5in"
   viewBox="0 0 11.0 9.5"
   version="1.1"
   id="SVGRoot"
   sodipodi:docname="C_logo.svg"
   inkscape:version="1.2.1 (9c6d41e410, 2022-07-14)"
   xmlns:inkscape="http://www.inkscape.org/namespaces/inkscape"
   xmlns:sodipodi="http://sodipodi.sourceforge.net/DTD/sodipodi-0.dtd"
   xmlns="http://www.w3.org/2000/svg"
   xmlns:svg="http://www.w3.org/2000/svg">
  <sodipodi:namedview
     id="namedview4155"
     pagecolor="#ffffff"
     bordercolor="#000000"
     borderopacity="0.25"
     inkscape:showpageshadow="2"
     inkscape:pageopacity="0.0"
     inkscape:pagecheckerboard="0"
     inkscape:deskcolor="#d1d1d1"
     inkscape:document-units="in"
     showgrid="false"
     inkscape:zoom="0.35322321"
     inkscape:cx="808.27078"
     inkscape:cy="663.88616"
     inkscape:window-width="1920"
     inkscape:window-height="1003"
     inkscape:window-x="0"
     inkscape:window-y="0"
     inkscape:window-maximized="1"
     inkscape:current-layer="g20796"
     showguides="true" />
  <defs
     id="defs4150">
    <clipPath
       clipPathUnits="userSpaceOnUse"
       id="clipPath2996">
      <rect
         style="fill:#2b0000;fill-opacity:0.981527;fill-rule:evenodd;stroke-width:3.24009;stroke-linecap:round;stroke-linejoin:round"
         id="rect2998"
         width="131.33664"
         height="75.859398"
         x="123.60732"
         y="65.785545" />
    </clipPath>
    <inkscape:path-effect
       effect="bspline"
       id="path-effect1668"
       is_visible="true"
       lpeversion="1"
       weight="33.333333"
       steps="2"
       helper_size="0"
       apply_no_weight="true"
       apply_with_weight="true"
       only_selected="false" />
    <inkscape:path-effect
       effect="bspline"
       id="path-effect1668-3"
       is_visible="true"
       lpeversion="1"
       weight="33.333333"
       steps="2"
       helper_size="0"
       apply_no_weight="true"
       apply_with_weight="true"
       only_selected="false" />
    <inkscape:path-effect
       effect="bspline"
       id="path-effect1668-3-7"
       is_visible="true"
       lpeversion="1"
       weight="33.333333"
       steps="2"
       helper_size="0"
       apply_no_weight="true"
       apply_with_weight="true"
       only_selected="false" />
    <inkscape:path-effect
       effect="bspline"
       id="path-effect1668-3-7-3"
       is_visible="true"
       lpeversion="1"
       weight="33.333333"
       steps="2"
       helper_size="0"
       apply_no_weight="true"
       apply_with_weight="true"
       only_selected="false" />
    <clipPath
       clipPathUnits="userSpaceOnUse"
       id="clipPath20732">
      <g
         id="g20744">
        <g
           id="g20742"
           transform="matrix(0.07767334,0,0,0.07644693,1.102333,0.07629198)">
          <path
             class="st0"
             d="M 107.81,92.16 C 108.67,90.68 109.2,89 109.2,87.5 V 35.38 c 0,-1.5 -0.53,-3.17 -1.39,-4.66 L 54.6,61.44 Z"
             id="path20734"
             style="clip-rule:evenodd;fill:#3949ab;fill-rule:evenodd" />
          <path
             class="st1"
             d="m 59.33,121.75 45.14,-26.06 c 1.3,-0.75 2.48,-2.05 3.34,-3.53 L 54.6,61.44 1.39,92.16 c 0.86,1.48 2.04,2.78 3.34,3.53 l 45.14,26.06 c 2.6,1.5 6.85,1.5 9.46,0 z"
             id="path20736"
             style="clip-rule:evenodd;fill:#283593;fill-rule:evenodd" />
          <path
             class="st2"
             d="m 107.81,30.72 c -0.86,-1.48 -2.04,-2.78 -3.34,-3.53 L 59.33,1.13 c -2.6,-1.5 -6.86,-1.5 -9.46,0 L 4.73,27.19 C 2.13,28.69 0,32.38 0,35.38 V 87.5 c 0,1.5 0.53,3.17 1.39,4.66 L 54.6,61.44 Z"
             id="path20738"
             style="clip-rule:evenodd;fill:#5c6bc0;fill-rule:evenodd" />
          <path
             class="st3"
             d="m 54.6,97.84 c -20.07,0 -36.4,-16.33 -36.4,-36.4 0,-20.07 16.33,-36.4 36.4,-36.4 12.95,0 25.03,6.97 31.52,18.19 l -15.75,9.12 c -3.25,-5.62 -9.29,-9.1 -15.77,-9.1 -10.04,0 -18.2,8.16 -18.2,18.2 0,10.03 8.16,18.2 18.2,18.2 6.48,0 12.52,-3.49 15.77,-9.1 l 15.75,9.12 C 79.63,90.87 67.55,97.84 54.6,97.84 Z"
             id="path20740"
             style="clip-rule:evenodd;fill:#ffffff;fill-rule:evenodd" />
        </g>
      </g>
    </clipPath>
    <clipPath
       clipPathUnits="userSpaceOnUse"
       id="clipPath20746">
      <g
         id="g20758">
        <g
           id="g20756"
           transform="matrix(0.07767334,0,0,0.07644693,1.102333,0.07629198)">
          <path
             class="st0"
             d="M 107.81,92.16 C 108.67,90.68 109.2,89 109.2,87.5 V 35.38 c 0,-1.5 -0.53,-3.17 -1.39,-4.66 L 54.6,61.44 Z"
             id="path20748"
             style="clip-rule:evenodd;fill:#3949ab;fill-rule:evenodd" />
          <path
             class="st1"
             d="m 59.33,121.75 45.14,-26.06 c 1.3,-0.75 2.48,-2.05 3.34,-3.53 L 54.6,61.44 1.39,92.16 c 0.86,1.48 2.04,2.78 3.34,3.53 l 45.14,26.06 c 2.6,1.5 6.85,1.5 9.46,0 z"
             id="path20750"
             style="clip-rule:evenodd;fill:#283593;fill-rule:evenodd" />
          <path
             class="st2"
             d="m 107.81,30.72 c -0.86,-1.48 -2.04,-2.78 -3.34,-3.53 L 59.33,1.13 c -2.6,-1.5 -6.86,-1.5 -9.46,0 L 4.73,27.19 C 2.13,28.69 0,32.38 0,35.38 V 87.5 c 0,1.5 0.53,3.17 1.39,4.66 L 54.6,61.44 Z"
             id="path20752"
             style="clip-rule:evenodd;fill:#5c6bc0;fill-rule:evenodd" />
          <path
             class="st3"
             d="m 54.6,97.84 c -20.07,0 -36.4,-16.33 -36.4,-36.4 0,-20.07 16.33,-36.4 36.4,-36.4 12.95,0 25.03,6.97 31.52,18.19 l -15.75,9.12 c -3.25,-5.62 -9.29,-9.1 -15.77,-9.1 -10.04,0 -18.2,8.16 -18.2,18.2 0,10.03 8.16,18.2 18.2,18.2 6.48,0 12.52,-3.49 15.77,-9.1 l 15.75,9.12 C 79.63,90.87 67.55,97.84 54.6,97.84 Z"
             id="path20754"
             style="clip-rule:evenodd;fill:#ffffff;fill-rule:evenodd" />
        </g>
      </g>
    </clipPath>
    <clipPath
       clipPathUnits="userSpaceOnUse"
       id="clipPath20760">
      <g
         id="g20772">
        <g
           id="g20770"
           transform="matrix(0.07767334,0,0,0.07644693,1.102333,0.07629198)">
          <path
             class="st0"
             d="M 107.81,92.16 C 108.67,90.68 109.2,89 109.2,87.5 V 35.38 c 0,-1.5 -0.53,-3.17 -1.39,-4.66 L 54.6,61.44 Z"
             id="path20762"
             style="clip-rule:evenodd;fill:#3949ab;fill-rule:evenodd" />
          <path
             class="st1"
             d="m 59.33,121.75 45.14,-26.06 c 1.3,-0.75 2.48,-2.05 3.34,-3.53 L 54.6,61.44 1.39,92.16 c 0.86,1.48 2.04,2.78 3.34,3.53 l 45.14,26.06 c 2.6,1.5 6.85,1.5 9.46,0 z"
             id="path20764"
             style="clip-rule:evenodd;fill:#283593;fill-rule:evenodd" />
          <path
             class="st2"
             d="m 107.81,30.72 c -0.86,-1.48 -2.04,-2.78 -3.34,-3.53 L 59.33,1.13 c -2.6,-1.5 -6.86,-1.5 -9.46,0 L 4.73,27.19 C 2.13,28.69 0,32.38 0,35.38 V 87.5 c 0,1.5 0.53,3.17 1.39,4.66 L 54.6,61.44 Z"
             id="path20766"
             style="clip-rule:evenodd;fill:#5c6bc0;fill-rule:evenodd" />
          <path
             class="st3"
             d="m 54.6,97.84 c -20.07,0 -36.4,-16.33 -36.4,-36.4 0,-20.07 16.33,-36.4 36.4,-36.4 12.95,0 25.03,6.97 31.52,18.19 l -15.75,9.12 c -3.25,-5.62 -9.29,-9.1 -15.77,-9.1 -10.04,0 -18.2,8.16 -18.2,18.2 0,10.03 8.16,18.2 18.2,18.2 6.48,0 12.52,-3.49 15.77,-9.1 l 15.75,9.12 C 79.63,90.87 67.55,97.84 54.6,97.84 Z"
             id="path20768"
             style="clip-rule:evenodd;fill:#ffffff;fill-rule:evenodd" />
        </g>
      </g>
    </clipPath>
    <clipPath
       clipPathUnits="userSpaceOnUse"
       id="clipPath20774">
      <g
         id="g20786">
        <g
           id="g20784"
           transform="matrix(0.07767334,0,0,0.07644693,1.102333,0.07629198)">
          <path
             class="st0"
             d="M 107.81,92.16 C 108.67,90.68 109.2,89 109.2,87.5 V 35.38 c 0,-1.5 -0.53,-3.17 -1.39,-4.66 L 54.6,61.44 Z"
             id="path20776"
             style="clip-rule:evenodd;fill:#3949ab;fill-rule:evenodd" />
          <path
             class="st1"
             d="m 59.33,121.75 45.14,-26.06 c 1.3,-0.75 2.48,-2.05 3.34,-3.53 L 54.6,61.44 1.39,92.16 c 0.86,1.48 2.04,2.78 3.34,3.53 l 45.14,26.06 c 2.6,1.5 6.85,1.5 9.46,0 z"
             id="path20778"
             style="clip-rule:evenodd;fill:#283593;fill-rule:evenodd" />
          <path
             class="st2"
             d="m 107.81,30.72 c -0.86,-1.48 -2.04,-2.78 -3.34,-3.53 L 59.33,1.13 c -2.6,-1.5 -6.86,-1.5 -9.46,0 L 4.73,27.19 C 2.13,28.69 0,32.38 0,35.38 V 87.5 c 0,1.5 0.53,3.17 1.39,4.66 L 54.6,61.44 Z"
             id="path20780"
             style="clip-rule:evenodd;fill:#5c6bc0;fill-rule:evenodd" />
          <path
             class="st3"
             d="m 54.6,97.84 c -20.07,0 -36.4,-16.33 -36.4,-36.4 0,-20.07 16.33,-36.4 36.4,-36.4 12.95,0 25.03,6.97 31.52,18.19 l -15.75,9.12 c -3.25,-5.62 -9.29,-9.1 -15.77,-9.1 -10.04,0 -18.2,8.16 -18.2,18.2 0,10.03 8.16,18.2 18.2,18.2 6.48,0 12.52,-3.49 15.77,-9.1 l 15.75,9.12 C 79.63,90.87 67.55,97.84 54.6,97.84 Z"
             id="path20782"
             style="clip-rule:evenodd;fill:#ffffff;fill-rule:evenodd" />
        </g>
      </g>
    </clipPath>
  </defs>
  <g
     inkscape:label="Layer 1"
     inkscape:groupmode="layer"
     id="layer1">
    <g
       id="g1216">
      <g
         id="g644">
        <g
           id="g20796">
          <path
             style="fill:#8071ff;fill-opacity:0.556048;fill-rule:evenodd;stroke:none;stroke-width:0.0657834;stroke-linecap:round;stroke-linejoin:round;stroke-dasharray:none;stroke-opacity:0.693397"
             d="m -2.9823749,0.13241786 c -0.3729416,-1.10024301 -0.961222,-2.86719216 -1.4577909,-2.54328246 -0.4965684,0.3239099 -0.9013957,2.73859145 -1.5483491,3.6516609 -0.6469533,0.9130695 -1.5360152,0.324507 -1.3417868,0.9732223 0.1942282,0.6487151 1.4717194,2.5346345 1.3655621,4.2151504 C -6.0708968,8.109685 -7.560651,9.5847283 -7.052479,9.4176599 -6.544307,9.2505927 -4.0382837,7.4414598 -1.9725098,8.3104606 0.09326515,9.1794601 1.7186629,12.726453 2.1629533,12.302296 2.6072437,11.878139 1.87043,7.4829358 3.3641154,6.1210718 4.8578018,4.7592064 8.5817579,6.4306851 9.2901236,6.9965933 9.9984903,7.5625016 7.6911326,7.0227638 6.1551733,6.8691436 4.6192129,6.7155221 3.8547398,6.9480271 3.4195134,7.467865 2.9842871,7.987703 2.8783428,8.7948098 3.0447782,9.6436094 3.2112124,10.492408 3.6499941,11.382842 5.0918624,11.324286 6.5337296,11.265729 8.9785828,10.258237 10.352651,9.2238989 11.726719,8.1895624 12.029957,7.1284219 10.935011,6.0214804 9.8400657,4.914539 7.3470055,3.7618715 5.9995604,2.0459756 4.6521142,0.33007968 4.4503645,-1.9489444 3.7977612,-1.8543715 3.145159,-1.7597984 2.041758,0.70833541 1.0639798,0.49799237 0.08620162,0.28764919 -0.76591292,-2.6011234 -1.1981401,-2.8421058 -1.6303683,-3.0830884 -1.6426844,-0.6763143 -2.1326156,-0.87204347 -2.6225457,-1.0677726 -3.5900618,-3.8659441 -4.6009843,-5.2209194 c -1.0109223,-1.3549751 -2.065195,-1.2666687 -2.5346455,-0.3056696 -0.4694506,0.9609991 -0.354048,2.7945876 -1.1073323,3.404039 -0.7532842,0.6094514 -2.3752129,-0.00523 -2.4356219,0.2292758 -0.06041,0.2345022 1.4406733,1.31814563 1.6227733,2.50491612 C -8.8737105,1.7984123 -10.010554,3.088251 -10.27245,4.7564244 -10.534345,6.4245991 -9.921303,8.4709723 -9.2643068,9.1023607 -8.6073106,9.7337491 -7.9063896,8.9501706 -7.4869409,7.9071175 -7.0674922,6.8640644 -6.9295332,5.561583 -7.0449154,4.5916057 -7.1602977,3.621628 -7.5290283,2.9842003 -7.7178277,2.3966452 -7.906627,1.8090901 -7.9154727,1.271443 -7.6357395,1.0622078 c 0.2797332,-0.20923508 0.8480021,-0.0900285 1.2996774,-0.70511648 0.4516753,-0.61508801 0.7867575,-1.96443112 1.1409449,-2.70872852 0.3541874,-0.7442973 0.7274492,-0.8834957 1.0117185,-0.7801529 0.2842692,0.1033428 0.4795062,0.4491603 0.69041,0.9803012 0.2109027,0.5311408 0.4374551,1.24754881 0.8259328,2.32810469 0.3884766,1.08055601 0.9388495,2.52518611 0.8636892,3.24750191 -0.07516,0.7223157 -0.7758409,0.7223157 -1.3409645,0.169917 -0.5651236,-0.5523987 -0.9946505,-1.6571793 -1.1590542,-2.59479896 -0.1644037,-0.93761971 -0.063665,-1.70801678 0.1150619,-1.82221696 0.1787258,-0.11420018 0.4354042,0.42776998 0.586971,1.12446394 0.1515668,0.69669383 0.1980197,1.54804068 0.3908436,2.16949048 0.1928239,0.6214496 0.5319876,1.0129901 0.7090846,0.912791 0.1770971,-0.100199 0.1921328,-0.6920879 0.1208568,-1.2048465 -0.071277,-0.5127586 -0.2288659,-0.9462568 -0.6018074,-2.04649984 z"
             id="path1666"
             sodipodi:nodetypes="cccccccccccccccccccccccccccccccccccccccccccccc"
             inkscape:label="path1666"
             clip-path="url(#clipPath20774)" />
          <path
             style="fill:#922ad5;fill-opacity:0.653591;fill-rule:evenodd;stroke:none;stroke-width:0.0552787;stroke-linecap:round;stroke-linejoin:round;stroke-dasharray:none;stroke-opacity:0.693397"
             d="M 6.7544304,3.6371079 C 6.9106862,2.9383741 7.1707646,1.8213423 6.604562,1.7362248 6.0383605,1.6511073 4.6459336,2.5978815 3.6957066,2.7190178 2.7454796,2.840154 2.2374846,2.1356492 2.1233399,2.5353238 2.0091953,2.9349985 2.2889062,4.4387999 1.4704752,5.1819286 0.65204314,5.9250572 -1.2644592,5.9075033 -0.75618451,6.0722926 -0.24790877,6.2370805 2.6850636,6.5841976 4.0811915,7.985579 c 1.3961279,1.4013827 1.2553675,3.856904 1.8201139,3.869576 0.5647454,0.01267 1.8349536,-2.4174466 3.7058409,-2.3445298 1.8708877,0.072915 4.3422597,2.6487608 4.7050377,3.2558958 0.362778,0.607135 -1.383118,-0.754538 -2.634343,-1.563794 -1.251224,-0.809257 -2.007707,-1.066052 -2.6060834,-1.029173 -0.5983753,0.03688 -1.0385971,0.367425 -1.2631918,0.84831 -0.2245947,0.480885 -0.233557,1.112063 1.0287808,1.775939 1.2623364,0.663874 3.7958634,1.360427 5.4223784,1.530728 1.626516,0.170301 2.345949,-0.185651 1.885682,-1.233833 C 15.685141,12.046514 14.045215,10.306165 13.631903,8.8491479 13.218592,7.3921291 14.031914,6.2185301 13.431108,5.9502157 12.830304,5.6819026 10.815428,6.3188858 10.067618,5.7505406 9.3198081,5.1821953 9.8390874,3.408563 9.5725787,3.0873932 9.306069,2.7662234 8.2538045,3.8975172 7.9182015,3.570058 7.5825984,3.2425989 7.9636579,1.4564262 7.6828347,0.33134498 7.4020104,-0.79373628 6.4593173,-1.2576591 5.6406366,-1.0287449 4.8219548,-0.79983089 4.1273476,0.12188861 3.2173105,0.04856708 2.3072733,-0.02475433 1.181847,-1.0930952 1.028525,-1.0112657 0.87520416,-0.92943619 1.693977,0.30252985 1.336549,0.95061817 0.97912109,1.5987065 -0.55445729,1.662905 -1.501159,2.3255067 -2.4478606,2.9881083 -2.8076352,4.249044 -2.5172668,4.8624814 -2.2268984,5.4759196 -1.2864212,5.441852 -0.47511803,5.1501825 0.33618517,4.858513 1.0182812,4.3092575 1.3391154,3.7956075 1.6599484,3.2819576 1.6195014,2.8039242 1.7118362,2.4357507 1.8041699,2.0675773 2.0292864,1.8092955 2.3598276,1.8445976 2.6903698,1.8798998 3.126299,2.2087765 3.7800242,2.1347785 4.4337493,2.0607805 5.3052425,1.5839277 5.931245,1.4021232 6.5572476,1.2203189 6.9377198,1.3335702 7.13687,1.5187407 7.3360202,1.7039112 7.3538408,1.960949 7.3048891,2.3130646 7.2559373,2.6651803 7.1402228,3.1123413 7.0058155,3.8092242 6.8714082,4.5061078 6.7183145,5.4526632 6.3412004,5.7579066 5.9640863,6.0631514 5.3629626,5.7270918 5.1172287,5.1950433 4.8714959,4.6629948 4.9811702,3.9349776 5.2459494,3.4130995 5.5107286,2.8912214 5.9305978,2.575524 6.1333526,2.6072878 6.3361085,2.6390516 6.3217404,3.018239 6.1502314,3.4201168 5.9787213,3.8219946 5.6500939,4.2465355 5.5465413,4.6326545 5.4429887,5.0187733 5.5644958,5.3664457 5.7598003,5.4040367 5.9551059,5.4416276 6.2241851,5.1691729 6.3849649,4.8927127 6.5457447,4.6162524 6.5981746,4.3358417 6.7544304,3.6371079 Z"
             id="path1666-6"
             sodipodi:nodetypes="cccccccccccccccccccccccccccccccccccccccccccccc"
             clip-path="url(#clipPath20760)" />
          <path
             style="fill:#ff7a79;fill-opacity:0.639327;fill-rule:evenodd;stroke:none;stroke-width:0.0612665;stroke-linecap:round;stroke-linejoin:round;stroke-dasharray:none;stroke-opacity:0.693397"
             d="M 0.12335262,-0.48050253 C 0.07471804,-1.5327675 0.0064884,-3.2179715 -0.54147785,-3.1754895 c -0.54796625,0.042482 -1.57561985,1.8125962 -2.42218385,2.2642199 -0.8465651,0.4516237 -1.5120178,-0.415252 -1.5071386,0.19386258 0.00488,0.60911461 0.6800839,2.69414632 0.1277041,4.00347332 -0.5523798,1.3093269 -2.3322787,1.8429146 -1.8159188,1.9321128 0.5163598,0.089198 3.3289001,-0.2659902 5.0097753,1.3459186 1.68087399,1.6119088 2.2300071,5.1907443 2.756575,5.0443183 C 2.133902,11.46199 2.6378809,7.5903882 4.3908549,7.1498647 6.143829,6.7093412 9.1455849,9.699797 9.649596,10.468736 10.153607,11.237674 8.1597682,9.7849742 6.7769572,8.9839124 5.3941462,8.1828505 4.6224371,8.0334732 4.0784302,8.2611055 3.5344232,8.4887378 3.2181645,9.0933452 3.1432228,9.8516703 c -0.074941,0.7583247 0.091421,1.6703047 1.4442953,2.2586677 1.3528746,0.588363 3.8921509,0.853108 5.4457319,0.624157 1.55358,-0.228951 2.121409,-0.951583 1.405063,-2.327531 C 10.721967,9.0310139 8.7214886,7.0018341 7.9354885,5.0231689 7.1494894,3.0445045 7.5780144,1.1164646 6.9473057,0.90509452 6.316596,0.69372461 4.6267104,2.1990226 3.7768257,1.5982512 2.9269399,0.99747971 2.9170829,-1.7093064 2.5813674,-2.0943106 2.2456529,-2.479315 1.5841141,-0.5425523 1.1826678,-0.91647458 0.78122137,-1.2903969 0.63987699,-3.9749436 0.06844531,-5.5140099 -0.5029853,-7.0530762 -1.5044743,-7.446569 -2.1993847,-6.8780195 c -0.6949116,0.5685496 -1.0831856,2.0990712 -1.9463391,2.2588099 -0.863153,0.1597387 -2.201144,-1.0512791 -2.3205056,-0.8886731 -0.1193616,0.162606 0.9798912,1.6987923 0.828186,2.7367537 -0.1517053,1.0379614 -1.5543221,1.5776677 -2.2477878,2.80838225 -0.6934658,1.23071455 -0.6777531,3.15232045 -0.239064,3.95145285 0.4386891,0.7991322 1.3003195,0.4757949 1.9710259,-0.1810123 0.6707066,-0.656807 1.1504625,-1.6470521 1.3054776,-2.4806565 0.1550152,-0.83360438 -0.01473,-1.51053514 -0.031095,-2.06790209 -0.016365,-0.55736691 0.1206611,-0.99513051 0.436578,-1.04066261 0.3159173,-0.045532 0.8106778,0.3011734 1.3956697,0.00393 0.5849908,-0.2972463 1.2602002,-1.2384105 1.7896911,-1.6828988 0.52948987,-0.4444881 0.91322066,-0.3922725 1.14891,-0.1835642 0.23568827,0.2087083 0.32332117,0.573839 0.37542215,1.0954257 0.052101,0.5215868 0.068669,1.1995761 0.13702719,2.24280259 C 0.47216976,0.7373918 0.59231287,2.1457821 0.32750364,2.6955352 0.06269548,3.2452884 -0.58705215,2.9364085 -0.96188174,2.2415185 -1.3367124,1.5466284 -1.4365929,0.46575727 -1.3357759,-0.36334669 -1.23496,-1.1924505 -0.93344335,-1.7697297 -0.73686162,-1.7830967 c 0.19658281,-0.013367 0.28820608,0.5371365 0.24056373,1.16616164 -0.0476413,0.6290253 -0.23453101,1.33651196 -0.22358963,1.92300396 0.0109414,0.5864919 0.21968712,1.0519652 0.41097657,1.0491778 0.19128945,-0.00279 0.36511296,-0.4737944 0.43752478,-0.9189943 0.0724108,-0.44520001 0.0433734,-0.86448972 -0.005261,-1.91675493 z"
             id="path1666-6-5"
             sodipodi:nodetypes="cccccccccccccccccccccccccccccccccccccccccccccc"
             inkscape:label="2"
             clip-path="url(#clipPath20746)" />
          <path
             style="fill:#ff0000;fill-opacity:0.326323;fill-rule:evenodd;stroke:none;stroke-width:0.0702521;stroke-linecap:round;stroke-linejoin:round;stroke-dasharray:none;stroke-opacity:0.693397"
             d="M 19.799307,4.0406898 C 21.248237,4.2898275 23.564816,4.7029073 23.727611,3.890979 23.890406,3.0790512 21.89948,1.0422125 21.626675,-0.32954321 21.35387,-1.7012989 22.799184,-2.4079458 21.969823,-2.5860982 21.140461,-2.7642506 18.036522,-2.4138938 16.480258,-3.6175719 14.923995,-4.8212501 14.915429,-7.5788591 14.58648,-6.8530702 14.25753,-6.1272813 13.608222,-1.9182146 10.742269,0.04243527 7.8763154,2.0030851 2.793976,1.7152637 2.7809804,2.5276 2.7679849,3.3399363 7.8242294,5.2523711 7.7172136,7.9424177 7.6101967,10.632463 2.3401436,14.09983 1.0928275,14.600865 -0.15448962,15.1019 2.6211393,12.636483 4.265726,10.863821 5.9103116,9.0911596 6.4237596,8.0113468 6.3334618,7.1488732 6.2431651,6.2863984 5.5491515,5.6413579 4.5492302,5.3014389 3.54931,4.9615199 2.2435634,4.926711 0.89994577,6.7204204 -0.44367186,8.5141298 -1.8251113,12.136186 -2.1392837,14.47113 -2.4534562,16.806072 -1.7003574,17.853831 0.45694762,17.227818 2.6142526,16.601805 6.1756213,14.302047 9.1796606,13.757782 12.1837,13.213518 14.630242,14.424786 15.171161,13.56942 15.71208,12.714053 14.347355,9.7921453 15.505422,8.7356389 16.663489,7.6791325 20.344259,8.4880452 21.002326,8.1156299 21.660393,7.7432145 19.295769,6.1895301 19.965239,5.7179044 c 0.66947,-0.4716257 4.372941,0.1387996 6.6935,-0.2262971 2.320559,-0.365098 3.258071,-1.7057118 2.765409,-2.8919106 -0.492662,-1.1861989 -2.415424,-2.21786897 -2.28507,-3.52503583 0.130354,-1.30716697 2.313773,-2.88978637 2.140928,-3.11328927 -0.172846,-0.2235028 -2.701893,0.912104 -4.050775,0.3751949 -1.348882,-0.536909 -1.517579,-2.7462516 -2.910284,-4.13174 -1.392705,-1.3854885 -4.00927,-1.9470459 -5.271313,-1.5504449 -1.262044,0.3966009 -1.169558,1.7513111 -0.547274,2.9290546 0.622284,1.1777435 1.774341,2.1784768 2.844304,2.6580566 1.069964,0.4795799 2.05779,0.4379631 2.82148,0.5836265 0.763691,0.1456632 1.303192,0.4786131 1.237914,0.9531118 -0.06528,0.4744986 -0.735324,1.0904683 -0.56696,2.03386129 0.168365,0.94339302 1.1751,2.21419401 1.56581,3.12145951 0.390709,0.9072656 0.165366,1.4509074 -0.212977,1.7310872 -0.378343,0.2801786 -0.909587,0.2969026 -1.639059,0.2142277 -0.729471,-0.082675 -1.657095,-0.264732 -3.101685,-0.4823599 -1.444589,-0.2176275 -3.406045,-0.4708152 -4.046251,-1.024146 -0.640207,-0.5533308 0.04083,-1.4067973 1.135578,-1.7419935 1.094749,-0.3351963 2.60316,-0.1520818 3.688813,0.2470953 1.085653,0.399177 1.748477,1.0144075 1.687531,1.3051179 -0.06095,0.2907105 -0.845598,0.2568704 -1.680876,-0.00392 -0.835278,-0.2607915 -1.721099,-0.7484871 -2.522169,-0.9109168 -0.80107,-0.1624298 -1.517353,3.719e-4 -1.590546,0.2801403 -0.07319,0.2797685 0.496659,0.6764852 1.072267,0.9174822 0.575609,0.240997 1.156842,0.3261869 2.605773,0.5753245 z"
             id="path1666-6-5-5"
             sodipodi:nodetypes="cccccccccccccccccccccccccccccccccccccccccccccc"
             inkscape:label="1"
             clip-path="url(#clipPath20732)" />
          <path
             class="st0"
             d="M 9.2799866,7.058262 C 9.3431077,6.9491663 9.3820079,6.8253279 9.3820079,6.7147579 V 2.8728191 c 0,-0.1105699 -0.0389,-0.2336713 -0.1020208,-0.3435041 L 5.3745532,4.7937885 Z"
             id="path15573"
             style="clip-rule:evenodd;fill:none;fill-rule:evenodd;stroke:#ffffff;stroke-width:0.11883;stroke-linecap:round;stroke-linejoin:round;stroke-dasharray:0.11883, 0.35649;stroke-dashoffset:0;stroke-opacity:0.949924" />
          <path
             class="st1"
             d="M 5.7217187,9.2394395 9.0348419,7.3184701 C 9.1302578,7.2631852 9.2168655,7.1673577 9.2799866,7.058262 L 5.3745527,4.7937885 1.4691187,7.058262 c 0.063121,0.1090963 0.1497292,0.204923 0.2451448,0.2602081 l 3.3131231,1.9209694 c 0.1908313,0.1105699 0.5027669,0.1105699 0.6943321,0 z"
             id="path15575"
             style="clip-rule:evenodd;fill:none;fill-rule:evenodd;stroke:#ffffff;stroke-width:0.11883;stroke-linecap:round;stroke-linejoin:round;stroke-dasharray:0.11883, 0.35649;stroke-dashoffset:0;stroke-opacity:0.949924" />
          <path
             class="st2"
             d="M 9.2799866,2.529315 C 9.2168655,2.4202193 9.1302575,2.3243919 9.0348419,2.2691069 L 5.7217187,0.34813749 c -0.1908312,-0.11057004 -0.5035008,-0.11057004 -0.6943321,0 L 1.7142635,2.2691069 c -0.1908313,0.11057 -0.347166,0.3825722 -0.347166,0.6037122 v 3.8419388 c 0,0.1105699 0.0389,0.2336712 0.1020207,0.3435041 l 3.905434,-2.2644735 z"
             id="path15577"
             style="clip-rule:evenodd;fill:#ffffff;fill-opacity:0;fill-rule:evenodd;stroke:#ffffff;stroke-width:0.11883;stroke-linecap:round;stroke-linejoin:round;stroke-dasharray:0.11883, 0.35649;stroke-dashoffset:0;stroke-opacity:0.949924" />
          <path
             class="st3"
             d="m 5.0816312,7.507652 c -1.4730694,0 -2.6716357,-1.2037388 -2.6716357,-2.6831655 0,-1.4794265 1.1985663,-2.6831652 2.6716357,-2.6831652 0.9504871,0 1.8371174,0.5137819 2.3134614,1.3408455 L 6.2390967,4.1544323 C 6.0005579,3.7401634 5.5572416,3.4836411 5.0816312,3.4836411 c -0.7369015,0 -1.3358178,0.6015007 -1.3358178,1.3415826 0,0.7393447 0.5989163,1.3415827 1.3358178,1.3415827 0.4756104,0 0.9189267,-0.2572594 1.1574655,-0.6707915 L 7.3950926,6.1682807 C 6.9187486,6.99387 6.0321183,7.507652 5.0816312,7.507652 Z"
             id="path15579"
             style="clip-rule:evenodd;fill:#ffffff;fill-opacity:1;fill-rule:evenodd;stroke:none;stroke-width:0.0950641;stroke-linecap:round;stroke-linejoin:round;stroke-dasharray:none;stroke-dashoffset:0;stroke-opacity:0.536794" />
        </g>
      </g>
    </g>
  </g>
</svg>
